<svg width="35" height="33" viewBox="0 0 35 33" fill="none" xmlns="http://www.w3.org/2000/svg">
<g clip-path="url(#clip0_36_1066)">
<path d="M17.3735 -0.0393024C17.3165 -0.0296096 17.2603 -0.016467 17.2052 4.37647e-05C16.9013 0.064269 16.6304 0.22587 16.4387 0.457308C16.247 0.688747 16.1463 0.975702 16.1538 1.26927V2.53851H4.03846C2.9674 2.53851 1.9402 2.93967 1.18284 3.65375C0.42548 4.36783 0 5.33634 0 6.3462L0 22.8462C0 24.948 1.80923 26.6539 4.03846 26.6539H16.1538V27.1299L8.83346 30.5809C8.51 30.7282 8.26183 30.9906 8.14356 31.3103C8.02529 31.6301 8.04659 31.9811 8.20279 32.2861C8.35899 32.5911 8.63728 32.8251 8.97645 32.9366C9.31562 33.0481 9.68788 33.028 10.0113 32.8807L16.1538 29.9856V30.4616C16.1538 30.7982 16.2957 31.121 16.5481 31.3591C16.8006 31.5971 17.143 31.7308 17.5 31.7308C17.857 31.7308 18.1994 31.5971 18.4519 31.3591C18.7043 31.121 18.8462 30.7982 18.8462 30.4616V29.9856L24.9887 32.8807C25.3121 33.028 25.6844 33.0481 26.0236 32.9366C26.3627 32.8251 26.641 32.5911 26.7972 32.2861C26.9534 31.9811 26.9747 31.6301 26.8564 31.3103C26.7382 30.9906 26.49 30.7282 26.1665 30.5809L18.8462 27.1299V26.6539H30.9615C33.1908 26.6539 35 24.948 35 22.8462V6.3462C35 5.33634 34.5745 4.36783 33.8172 3.65375C33.0598 2.93967 32.0326 2.53851 30.9615 2.53851H18.8462V1.26927C18.853 1.08879 18.8188 0.90901 18.746 0.741955C18.6733 0.5749 18.5635 0.424413 18.4241 0.300549C18.2847 0.176685 18.1189 0.082297 17.9377 0.02369C17.7565 -0.0349169 17.5641 -0.0563927 17.3735 -0.0393024ZM2.69231 6.3462H32.3077V22.8462H2.69231V6.3462ZM28.101 7.61543C27.7994 7.64599 27.5177 7.77167 27.3013 7.97208L22.8846 12.1377L19.814 9.24004C19.667 9.09778 19.4866 8.99004 19.2873 8.92551C19.088 8.86097 18.8755 8.84144 18.6668 8.86848C18.458 8.89551 18.2589 8.96837 18.0855 9.08119C17.9121 9.194 17.7692 9.34362 17.6683 9.51801L13.6715 16.1028L12.0306 12.2151C11.9509 12.0144 11.8186 11.836 11.646 11.6965C11.4734 11.557 11.2662 11.4609 11.0436 11.4173C10.8211 11.3737 10.5904 11.384 10.3732 11.4472C10.156 11.5103 9.95923 11.6243 9.80135 11.7785L5.76288 15.5862C5.6356 15.7061 5.53462 15.8485 5.4657 16.0052C5.39679 16.162 5.36128 16.3299 5.36122 16.4996C5.36116 16.6693 5.39654 16.8373 5.46534 16.994C5.53414 17.1508 5.63502 17.2932 5.76221 17.4133C5.8894 17.5333 6.04042 17.6285 6.20664 17.6935C6.37286 17.7584 6.55103 17.7919 6.73097 17.792C6.91091 17.792 7.0891 17.7587 7.25536 17.6938C7.42163 17.6289 7.57272 17.5338 7.7 17.4139L10.2658 14.9947L12.2015 19.5157C12.2929 19.7425 12.4513 19.9398 12.6579 20.0843C12.8645 20.2288 13.1107 20.3145 13.3673 20.3312C13.6239 20.3479 13.8803 20.2949 14.106 20.1785C14.3317 20.0621 14.5173 19.8872 14.6408 19.6744L19.1423 12.257L21.9181 14.8754C22.0436 14.9979 22.194 15.0953 22.3603 15.1618C22.5266 15.2283 22.7053 15.2625 22.886 15.2625C23.0666 15.2625 23.2454 15.2283 23.4116 15.1618C23.5779 15.0953 23.7283 14.9979 23.8538 14.8754L29.2385 9.79851C29.4511 9.61289 29.5946 9.36753 29.6475 9.0989C29.7004 8.83026 29.66 8.5527 29.5322 8.30747C29.4044 8.06224 29.1961 7.86243 28.9382 7.73775C28.6804 7.61307 28.3867 7.57017 28.101 7.61543Z" fill="white"/>
</g>
<defs>
<clipPath id="clip0_36_1066">
<rect width="35" height="33" fill="white"/>
</clipPath>
</defs>
</svg>
